<svg width="120" height="120" viewBox="0 0 120 120" fill="none" xmlns="http://www.w3.org/2000/svg">
<g clip-path="url(#clip0_2124_12196)">
<rect width="120" height="120" fill="#162345"/>
<g filter="url(#filter0_fn_2124_12196)">
<circle cx="73" cy="-109" r="249" fill="url(#paint0_radial_2124_12196)"/>
</g>
<path d="M179.831 -33.3457H180.176V88.1084H179.176V70.1729H153.995V88.1084H152.995V70.1729H128.435V88.1084H127.435V70.1729H102.408V88.1084H101.408V70.1729H76.8477V88.1084H75.8477V70.1729H50.8213V88.1084H49.8213V70.1729H25.2607V88.1084H24.2607V70.1729H-0.765625V88.1084H-1.76562V70.1729H-26.3262V88.1084H-27.3262V70.1729H-52.042V88.1084H-53.042V-33.3457H-52.6973V-34H179.831V-33.3457ZM-52.042 44.1475V69.1729H-27.3262V44.1475H-52.042ZM-26.3262 44.1475V69.1729H-1.76562V44.1475H-26.3262ZM-0.765625 44.1475V69.1729H24.2607V44.1475H-0.765625ZM25.2607 44.1475V69.1729H49.8213V44.1475H25.2607ZM50.8213 44.1475V69.1729H75.8477V44.1475H50.8213ZM76.8477 44.1475V69.1729H101.408V44.1475H76.8477ZM102.408 44.1475V69.1729H127.435V44.1475H102.408ZM128.435 44.1475V69.1729H152.995V44.1475H128.435ZM153.995 44.1475V69.1729H179.176V44.1475H153.995ZM-52.042 43.1475H-27.3262V18.5869H-52.042V43.1475ZM-26.3262 43.1475H-1.76562V18.5869H-26.3262V43.1475ZM-0.765625 43.1475H24.2607V18.5869H-0.765625V43.1475ZM25.2607 43.1475H49.8213V18.5869H25.2607V43.1475ZM50.8213 43.1475H75.8477V18.5869H50.8213V43.1475ZM76.8477 43.1475H101.408V18.5869H76.8477V43.1475ZM102.408 43.1475H127.435V18.5869H102.408V43.1475ZM128.435 43.1475H152.995V18.5869H128.435V43.1475ZM153.995 43.1475H179.176V18.5869H153.995V43.1475ZM-52.042 17.5869H-27.3262V-7.43945H-52.042V17.5869ZM-26.3262 17.5869H-1.76562V-7.43945H-26.3262V17.5869ZM-0.765625 17.5869H24.2607V-7.43945H-0.765625V17.5869ZM25.2607 17.5869H49.8213V-7.43945H25.2607V17.5869ZM50.8213 17.5869H75.8477V-7.43945H50.8213V17.5869ZM76.8477 17.5869H101.408V-7.43945H76.8477V17.5869ZM102.408 17.5869H127.435V-7.43945H102.408V17.5869ZM128.435 17.5869H152.995V-7.43945H128.435V17.5869ZM153.995 17.5869H179.176V-7.43945H153.995V17.5869ZM-52.042 -8.43945H-27.3262V-33H-52.042V-8.43945ZM-26.3262 -8.43945H-1.76562V-33H-26.3262V-8.43945ZM-0.765625 -8.43945H24.2607V-33H-0.765625V-8.43945ZM25.2607 -8.43945H49.8213V-33H25.2607V-8.43945ZM50.8213 -8.43945H75.8477V-33H50.8213V-8.43945ZM76.8477 -8.43945H101.408V-33H76.8477V-8.43945ZM102.408 -8.43945H127.435V-33H102.408V-8.43945ZM128.435 -8.43945H152.995V-33H128.435V-8.43945ZM153.995 -8.43945H179.176V-33H153.995V-8.43945Z" fill="url(#paint1_radial_2124_12196)" fill-opacity="0.3"/>
<g transform="translate(60, 60) scale(1.67) translate(-60, -60)">
<path d="M63.7289 51.4877L60.509 46.2874L57.289 51.4877L40.6087 78.4166L45.2634 81.3015L60.509 56.6879L75.7545 81.3015L80.4092 78.4166L63.7289 51.4877Z" fill="url(#paint2_linear_2124_12196)"/>
<path d="M60.5093 56.6879L74.8605 69.4585L80.4096 78.4165L75.7549 81.3015L60.5093 56.6879Z" fill="url(#paint3_linear_2124_12196)"/>
<path d="M85.5237 59.5C85.5237 45.6804 74.3247 34.4767 60.5093 34.4766C46.694 34.4766 35.4936 45.6804 35.4936 59.5C35.4937 73.3195 46.694 84.522 60.5093 84.522C74.3246 84.522 85.5237 73.3195 85.5237 59.5ZM91 59.5C90.9999 76.3448 77.349 89.9999 60.5093 90C43.6696 90 30.0188 76.3448 30.0187 59.5C30.0187 42.6551 43.6696 29 60.5093 29C77.349 29.0001 91 42.6551 91 59.5Z" fill="url(#paint4_linear_2124_12196)"/>
<path d="M31.4566 63.6703C33.282 67.6873 35.7134 70.2802 37.557 72.2376C38.9549 73.7214 40.4687 75.0915 42.084 76.335C38.7771 72.742 36.5969 68.2574 35.8136 63.4368C35.0303 58.6163 35.6784 53.6718 37.6775 49.2162C40.3754 42.2229 45.5595 37.9757 47.8339 36.1133C55.0588 30.2009 57.8224 29.4924 58.8263 29.109C58.9687 29.0506 58.1984 29.0067 56.8221 29.1565C56.5373 29.193 56.2526 29.2222 55.9751 29.266L55.7414 29.3025C55.3289 29.3646 54.92 29.4413 54.5148 29.5217L54.2446 29.5764C53.8796 29.6531 53.5145 29.7371 53.1494 29.8247L52.6785 29.9453C52.3572 30.0293 52.0432 30.1205 51.7256 30.2155L51.189 30.3835C50.8239 30.4967 50.4588 30.6172 50.112 30.7487L49.893 30.829C44.0627 32.9981 39.0336 36.8964 35.4786 42.0025C31.9235 47.1086 30.0121 53.1789 30 59.4013C30.0584 59.7117 30.1241 60.0148 30.2044 60.3106C30.5506 61.4558 30.9688 62.5779 31.4566 63.6703Z" fill="url(#paint5_linear_2124_12196)"/>
<path d="M84.0662 77.0619C85.636 72.928 85.7309 69.3748 85.8112 66.687C85.8699 64.6491 85.7661 62.6098 85.5009 60.5884C85.297 65.4666 83.6662 70.1777 80.8108 74.1376C77.9553 78.0975 74.0009 81.1319 69.4376 82.8648C62.5815 85.9031 55.9298 85.2385 53.0092 84.9463C43.7217 84.0188 41.2683 82.5653 40.2863 82.1271C40.1439 82.065 40.6514 82.642 41.7466 83.5112C41.9729 83.6864 42.1957 83.8763 42.4257 84.0334L42.6155 84.1721C42.9513 84.4168 43.2909 84.6542 43.6377 84.8843L43.8677 85.0376C44.1743 85.2385 44.4883 85.432 44.8023 85.6219L45.2221 85.8703C45.5069 86.0382 45.7953 86.1953 46.0873 86.3523L46.5838 86.6152C46.9197 86.7869 47.2593 86.9585 47.6024 87.1192L47.8141 87.2142C53.4709 89.8047 59.7835 90.6057 65.9077 89.51C72.0318 88.4142 77.6755 85.474 82.0838 81.0827C82.259 80.8234 82.427 80.5604 82.5766 80.2939C83.1413 79.2493 83.6388 78.1698 84.0662 77.0619Z" fill="url(#paint6_linear_2124_12196)"/>
</g>
</g>
<defs>
<filter id="filter0_fn_2124_12196" x="-341.1" y="-523.1" width="828.2" height="828.2" filterUnits="userSpaceOnUse" color-interpolation-filters="sRGB">
<feFlood flood-opacity="0" result="BackgroundImageFix"/>
<feBlend mode="normal" in="SourceGraphic" in2="BackgroundImageFix" result="shape"/>
<feGaussianBlur stdDeviation="82.55" result="effect1_foregroundBlur_2124_12196"/>
<feTurbulence type="fractalNoise" baseFrequency="2 2" stitchTiles="stitch" numOctaves="3" result="noise" seed="1603" />
<feColorMatrix in="noise" type="luminanceToAlpha" result="alphaNoise" />
<feComponentTransfer in="alphaNoise" result="coloredNoise1">
<feFuncA type="discrete" tableValues="1 1 1 1 1 1 1 1 1 1 1 1 1 1 1 1 1 1 1 1 1 1 1 1 1 1 1 1 1 1 1 1 1 1 1 1 1 1 1 1 1 1 1 1 1 1 1 1 1 1 1 0 0 0 0 0 0 0 0 0 0 0 0 0 0 0 0 0 0 0 0 0 0 0 0 0 0 0 0 0 0 0 0 0 0 0 0 0 0 0 0 0 0 0 0 0 0 0 0 0 "/>
</feComponentTransfer>
<feComposite operator="in" in2="effect1_foregroundBlur_2124_12196" in="coloredNoise1" result="noise1Clipped" />
<feFlood flood-color="rgba(0, 0, 0, 0.25)" result="color1Flood" />
<feComposite operator="in" in2="noise1Clipped" in="color1Flood" result="color1" />
<feMerge result="effect2_noise_2124_12196">
<feMergeNode in="effect1_foregroundBlur_2124_12196" />
<feMergeNode in="color1" />
</feMerge>
</filter>
<radialGradient id="paint0_radial_2124_12196" cx="0" cy="0" r="1" gradientUnits="userSpaceOnUse" gradientTransform="translate(73 -335.231) rotate(90) scale(544.812)">
<stop offset="0.235577" stop-color="#ECEAFF"/>
<stop offset="0.399038" stop-color="#998FFF"/>
<stop offset="0.543269" stop-color="#3B328D"/>
<stop offset="0.6875" stop-color="#26205A"/>
<stop offset="0.980769" stop-color="#111A35"/>
</radialGradient>
<radialGradient id="paint1_radial_2124_12196" cx="0" cy="0" r="1" gradientUnits="userSpaceOnUse" gradientTransform="translate(63.5669 9.18793) rotate(90) scale(78.9205 150.732)">
<stop stop-color="white" stop-opacity="0.2"/>
<stop offset="0.865385" stop-color="#282828"/>
</radialGradient>
<linearGradient id="paint2_linear_2124_12196" x1="40.6087" y1="63.7945" x2="191.983" y2="25.8004" gradientUnits="userSpaceOnUse">
<stop stop-color="white"/>
<stop offset="1" stop-color="#0E4C99"/>
<stop offset="1" stop-color="white"/>
</linearGradient>
<linearGradient id="paint3_linear_2124_12196" x1="-2.83488" y1="68.9947" x2="-2.69615" y2="68.9947" gradientUnits="userSpaceOnUse">
<stop stop-color="#3B5CAA"/>
<stop offset="1" stop-color="#0E4C99"/>
</linearGradient>
<linearGradient id="paint4_linear_2124_12196" x1="30.0181" y1="59.4998" x2="91.0003" y2="59.4998" gradientUnits="userSpaceOnUse">
<stop stop-color="#3B5CAA"/>
<stop offset="1" stop-color="#0E4C99"/>
</linearGradient>
<linearGradient id="paint5_linear_2124_12196" x1="45.7859" y1="35.0944" x2="32.6361" y2="69.0541" gradientUnits="userSpaceOnUse">
<stop stop-color="#1E4E97"/>
<stop offset="1" stop-color="#1C2652"/>
</linearGradient>
<linearGradient id="paint6_linear_2124_12196" x1="103.572" y1="60.7636" x2="63.0365" y2="89.9756" gradientUnits="userSpaceOnUse">
<stop stop-color="#0AF0CF"/>
<stop offset="1" stop-color="#3ABCED"/>
</linearGradient>
<clipPath id="clip0_2124_12196">
<rect width="120" height="120" fill="white"/>
</clipPath>
</defs>
</svg>

