<svg width="1024" height="1024" viewBox="24 24 72 72" fill="none" xmlns="http://www.w3.org/2000/svg">
<rect x="24" y="24" width="72" height="72" fill="white"/>
<path d="M63.7289 52.4877L60.509 47.2874L57.289 52.4877L40.6087 79.4166L45.2634 82.3015L60.509 57.6879L75.7545 82.3015L80.4092 79.4166L63.7289 52.4877Z" fill="#162345"/>
<path d="M60.5093 57.6879L74.8604 70.4585L80.4096 79.4165L75.7549 82.3015L60.5093 57.6879Z" fill="url(#paint0_linear_2123_11183)"/>
<path d="M85.5237 60.5C85.5237 46.6804 74.3246 35.4767 60.5093 35.4766C46.6939 35.4766 35.4936 46.6804 35.4936 60.5C35.4937 74.3195 46.694 85.522 60.5093 85.522C74.3246 85.522 85.5236 74.3195 85.5237 60.5ZM91 60.5C90.9999 77.3448 77.349 90.9999 60.5093 91C43.6696 91 30.0188 77.3448 30.0187 60.5C30.0187 43.6551 43.6696 30 60.5093 30C77.349 30.0001 91 43.6551 91 60.5Z" fill="#162345"/>
<path d="M31.4566 64.6703C33.282 68.6873 35.7134 71.2802 37.557 73.2376C38.9549 74.7214 40.4687 76.0915 42.084 77.335C38.7771 73.742 36.5969 69.2574 35.8136 64.4368C35.0303 59.6163 35.6784 54.6718 37.6775 50.2162C40.3754 43.2229 45.5595 38.9757 47.8339 37.1133C55.0588 31.2009 57.8224 30.4924 58.8263 30.109C58.9687 30.0506 58.1984 30.0067 56.8221 30.1565C56.5373 30.193 56.2526 30.2222 55.9751 30.266L55.7414 30.3025C55.3289 30.3646 54.92 30.4413 54.5148 30.5216L54.2446 30.5764C53.8796 30.6531 53.5145 30.7371 53.1494 30.8247L52.6785 30.9453C52.3572 31.0292 52.0432 31.1205 51.7256 31.2155L51.189 31.3835C50.8239 31.4967 50.4588 31.6172 50.112 31.7487L49.893 31.829C44.0627 33.9981 39.0336 37.8964 35.4786 43.0025C31.9235 48.1086 30.0121 54.1789 30 60.4013C30.0584 60.7117 30.1241 61.0148 30.2044 61.3106C30.5506 62.4558 30.9688 63.5779 31.4566 64.6703Z" fill="#162345"/>
<path d="M84.0662 78.0619C85.636 73.928 85.7309 70.3748 85.8112 67.687C85.8699 65.6491 85.7662 63.6098 85.5009 61.5884C85.297 66.4666 83.6662 71.1777 80.8108 75.1376C77.9554 79.0975 74.0009 82.1319 69.4376 83.8648C62.5815 86.9031 55.9298 86.2385 53.0092 85.9463C43.7217 85.0188 41.2684 83.5653 40.2863 83.1271C40.1439 83.065 40.6514 83.642 41.7466 84.5112C41.973 84.6864 42.1957 84.8763 42.4257 85.0334L42.6155 85.1721C42.9514 85.4168 43.2909 85.6542 43.6377 85.8843L43.8677 86.0376C44.1744 86.2385 44.4883 86.432 44.8023 86.6219L45.2222 86.8703C45.5069 87.0382 45.7953 87.1953 46.0874 87.3523L46.5839 87.6152C46.9197 87.7869 47.2593 87.9585 47.6025 88.1192L47.8142 88.2142C53.4709 90.8047 59.7835 91.6057 65.9077 90.51C72.0319 89.4142 77.6755 86.474 82.0838 82.0827C82.259 81.8234 82.427 81.5604 82.5767 81.2939C83.1413 80.2493 83.6389 79.1698 84.0662 78.0619Z" fill="#162345"/>
<defs>
<linearGradient id="paint0_linear_2123_11183" x1="82.6916" y1="73.1132" x2="52.1412" y2="73.1606" gradientUnits="userSpaceOnUse">
<stop stop-color="#16548D"/>
<stop offset="0.254808" stop-color="#5044C0"/>
<stop offset="0.798077" stop-color="#37EFEC"/>
<stop offset="1" stop-color="#0CEEC7"/>
</linearGradient>
</defs>
</svg>
