<svg width="380" height="69" viewBox="0 0 380 69" fill="none" xmlns="http://www.w3.org/2000/svg">
<path d="M36.8462 24.5462L33.4031 18.9873L29.9601 24.5462L12.1241 53.3319L17.1013 56.4158L33.4031 30.105L49.7049 56.4158L54.6821 53.3319L36.8462 24.5462Z" fill="url(#paint0_linear_28_2208)"/>
<path d="M33.4037 30.1045L48.7491 43.7557L54.6827 53.3314L49.7055 56.4153L33.4037 30.1045Z" fill="url(#paint1_linear_28_2208)"/>
<path d="M33.4035 62.7891C49.793 62.7891 63.0793 49.5028 63.0793 33.1133C63.0793 16.7238 49.793 3.4375 33.4035 3.4375C17.014 3.4375 3.72766 16.7238 3.72766 33.1133C3.72766 49.5028 17.014 62.7891 33.4035 62.7891Z" stroke="url(#paint2_linear_28_2208)" stroke-width="5.85553" stroke-miterlimit="10"/>
<path d="M2.33808 37.569C4.28993 41.863 6.88977 44.6346 8.86113 46.727C10.3558 48.3132 11.9745 49.7778 13.7017 51.107C10.1657 47.2663 7.83444 42.4724 6.99689 37.3194C6.15935 32.1665 6.85234 26.881 8.98996 22.1182C11.8748 14.6426 17.418 10.1026 19.85 8.11175C27.5754 1.79168 30.5305 1.03437 31.604 0.624479C31.7562 0.56202 30.9326 0.515178 29.4609 0.675229C29.1564 0.714266 28.8519 0.745491 28.5552 0.792335L28.3054 0.831362C27.8643 0.897725 27.4271 0.979716 26.9938 1.0656L26.7049 1.12414C26.3145 1.20612 25.9241 1.2959 25.5338 1.38959L25.0302 1.51841C24.6867 1.6082 24.351 1.70579 24.0113 1.80728L23.4375 1.98686C23.0471 2.10788 22.6568 2.2367 22.2859 2.37723L22.0517 2.4631C15.8175 4.78175 10.44 8.94892 6.63864 14.4071C2.83732 19.8653 0.793476 26.3541 0.780518 33.0056C0.842977 33.3374 0.913242 33.6614 0.999123 33.9776C1.36922 35.2018 1.81643 36.4013 2.33808 37.569Z" fill="url(#paint3_linear_28_2208)"/>
<path d="M58.5925 51.8839C60.271 47.465 60.3725 43.6667 60.4584 40.7936C60.5212 38.6152 60.4102 36.4352 60.1266 34.2744C59.9085 39.489 58.1648 44.525 55.1115 48.7579C52.0583 52.9909 47.8298 56.2346 42.9504 58.0869C35.6193 61.3348 28.5068 60.6243 25.3838 60.312C15.4528 59.3205 12.8295 57.7668 11.7794 57.2983C11.6272 57.232 12.1698 57.8488 13.3409 58.7779C13.5829 58.9652 13.8211 59.1682 14.067 59.3361L14.27 59.4844C14.6291 59.746 14.9922 59.9997 15.363 60.2456L15.609 60.4096C15.9369 60.6243 16.2726 60.8312 16.6083 61.0342L17.0572 61.2996C17.3617 61.4792 17.6701 61.6471 17.9824 61.8149L18.5133 62.096C18.8724 62.2795 19.2355 62.4629 19.6024 62.6347L19.8288 62.7362C25.8775 65.5054 32.6275 66.3616 39.1759 65.1903C45.7244 64.019 51.759 60.8761 56.4727 56.1819C56.6601 55.9047 56.8397 55.6237 56.9998 55.3387C57.6035 54.2221 58.1355 53.0682 58.5925 51.8839Z" fill="url(#paint4_linear_28_2208)"/>
<path d="M337.64 40.0474L331.942 57.3002H321.97L338.221 11.7148H349.037L365.129 57.3002H354.577L349.301 40.0474M349.301 40.0474L343.55 22.1614L337.64 40.0474" fill="#4086DD"/>
<path d="M379.638 57.3002H370.141V11.7148H379.638V57.3002Z" fill="#4086DD"/>
<path d="M122.526 13.8021C125.519 16.4435 127.404 20.1184 127.802 24.0905H121.84C121.299 21.4087 119.89 18.9797 117.83 17.1788C115.443 15.3229 112.459 14.4035 109.441 14.5936C107.444 14.5438 105.461 14.9392 103.636 15.7515C101.811 16.5637 100.189 17.7722 98.8892 19.2892C95.8733 23.4785 94.4344 28.5986 94.8266 33.7457C94.6041 38.3597 95.9016 42.9194 98.5199 46.725C99.7854 48.3935 101.446 49.7205 103.353 50.5864C105.26 51.4523 107.352 51.8297 109.441 51.6845C111.445 51.7741 113.436 51.3334 115.215 50.407C116.994 49.4806 118.496 48.1014 119.571 46.4084C120.968 44.2057 121.919 41.7495 122.368 39.18H128.172C127.737 43.649 125.889 47.8632 122.895 51.2097C121.058 53.166 118.82 54.7021 116.334 55.7129C113.848 56.7237 111.173 57.1853 108.492 57.0661C103.648 57.1821 98.9376 55.4677 95.3015 52.2648C92.817 49.6839 90.9108 46.6032 89.7099 43.2281C88.509 39.8529 88.041 36.2607 88.337 32.6906C88.1027 26.7372 89.9704 20.8911 93.6131 16.1764C95.5231 13.8588 97.9501 12.0214 100.699 10.8119C103.448 9.60236 106.442 9.05431 109.441 9.2119C111.817 9.07636 114.197 9.41226 116.442 10.2C118.688 10.9878 120.755 12.2119 122.526 13.8021Z" fill="white"/>
<path d="M153.128 35.5203C153.662 35.5146 154.184 35.3644 154.639 35.0857C155.095 34.807 155.466 34.4101 155.714 33.9374C156 33.2539 156.127 32.5139 156.083 31.7741C156.137 30.9654 155.981 30.1566 155.629 29.4262C155.278 28.6958 154.744 28.0688 154.078 27.6061C152.296 26.6611 150.288 26.223 148.274 26.3398C147.131 26.2244 145.977 26.3792 144.905 26.7916C143.833 27.204 142.872 27.8625 142.101 28.7141C141.322 29.8552 140.866 31.1863 140.782 32.5657H135.506C135.38 30.9291 135.678 29.2876 136.371 27.7997C137.064 26.3118 138.129 25.0275 139.463 24.0711C142.098 22.4133 145.163 21.5692 148.274 21.6441C151.583 21.4999 154.868 22.2663 157.771 23.86C158.951 24.5702 159.914 25.5897 160.556 26.808C161.197 28.0263 161.493 29.3971 161.412 30.7717V49.8712C161.386 50.3492 161.495 50.8248 161.728 51.2429C161.992 51.6122 162.467 51.7706 163.258 51.7706H164.103H165.052V55.8859L163.1 56.3081C162.486 56.3705 161.867 56.3705 161.254 56.3081C160.443 56.3727 159.631 56.2211 158.898 55.8688C158.166 55.5166 157.54 54.9764 157.085 54.3031C156.548 53.3614 156.207 52.3202 156.083 51.2429C154.77 52.8699 153.112 54.1853 151.229 55.0945C149.047 56.1719 146.645 56.7316 144.212 56.7301C141.426 56.8311 138.714 55.8258 136.667 53.9338C135.716 53.0346 134.966 51.9447 134.466 50.7354C133.966 49.5261 133.727 48.2247 133.765 46.9166C133.687 45.593 133.902 44.2684 134.395 43.0373C134.887 41.8063 135.645 40.6988 136.614 39.7939C138.752 38.009 141.385 36.9225 144.159 36.681L153.128 35.5203ZM141.415 50.557C142.615 51.4619 144.081 51.9443 145.584 51.9288C147.567 51.9462 149.524 51.475 151.282 50.557C152.712 49.955 153.924 48.9296 154.754 47.6185C155.584 46.3074 155.992 44.7736 155.925 43.2233V38.7386C155.108 39.2299 154.217 39.5863 153.287 39.7939C152.271 40.1008 151.229 40.3127 150.174 40.427L146.797 40.849C145.219 40.9848 143.68 41.4144 142.26 42.1154C141.433 42.5643 140.75 43.2393 140.293 44.0614C139.835 44.8835 139.62 45.8188 139.674 46.7582C139.647 47.4834 139.791 48.2049 140.093 48.8646C140.396 49.5243 140.848 50.1039 141.415 50.557Z" fill="white"/>
<path d="M170.749 10.1387H176.342V55.5657H170.749V10.1387Z" fill="white"/>
<path d="M184.836 10.1387H190.112V55.5657H184.836V10.1387Z" fill="white"/>
<path d="M198.765 10.1387H204.41V16.4699H198.765V10.1387ZM198.765 22.5902H204.41V55.5657H198.765V22.5902Z" fill="white"/>
<path d="M236.806 25.7572C238.346 27.435 239.529 29.409 240.282 31.5588C241.035 33.7086 241.342 35.9891 241.185 38.2615C241.388 42.9787 240.035 47.632 237.333 51.5045C235.914 53.302 234.074 54.7232 231.977 55.6432C229.879 56.5632 227.588 56.9538 225.304 56.7806C223.316 56.8325 221.342 56.4483 219.519 55.6553C217.696 54.8623 216.068 53.6797 214.751 52.1904C211.949 48.6636 210.524 44.2382 210.742 39.7388C210.496 34.9586 211.996 30.252 214.963 26.4957C216.343 24.8639 218.077 23.569 220.034 22.7095C221.991 21.85 224.118 21.4486 226.253 21.5362C228.203 21.5112 230.139 21.8712 231.95 22.5955C233.761 23.3198 235.411 24.3942 236.806 25.7572ZM233.323 47.7584C234.715 44.8439 235.419 41.6491 235.381 38.4198C235.493 35.8404 234.986 33.2716 233.904 30.9276C233.18 29.4478 232.029 28.2193 230.599 27.401C229.169 26.5826 227.527 26.2121 225.884 26.3375C224.421 26.2506 222.962 26.5691 221.668 27.258C220.374 27.9468 219.295 28.9794 218.55 30.2419C216.957 33.1089 216.173 36.3551 216.282 39.6333C216.17 42.7113 216.958 45.7551 218.55 48.3916C219.341 49.5736 220.433 50.5238 221.712 51.145C222.992 51.7661 224.413 52.0359 225.831 51.9265C227.356 52.0818 228.893 51.7654 230.232 51.02C231.572 50.2747 232.651 49.1362 233.323 47.7584Z" fill="white"/>
<path d="M247.57 22.5914H252.846V26.9705C253.84 25.6004 255.074 24.421 256.486 23.4884C258.476 22.2398 260.786 21.598 263.134 21.6417C264.953 21.621 266.755 21.9975 268.413 22.7447C270.072 23.4919 271.547 24.592 272.737 25.9682C275.536 29.4303 276.929 33.8187 276.641 38.2614C276.929 41.1017 276.565 43.9702 275.577 46.6489C274.59 49.3276 273.005 51.746 270.943 53.7203C268.605 55.6668 265.649 56.7146 262.607 56.6749C260.384 56.7389 258.189 56.1718 256.275 55.0393C254.999 54.1555 253.876 53.0684 252.951 51.821V68.5989H247.412L247.57 22.5914ZM268.674 48.5498C270.578 45.6657 271.486 42.2376 271.259 38.789C271.324 36.4661 270.929 34.1532 270.099 31.9828C269.527 30.3553 268.44 28.9592 267.001 28.0068C265.563 27.0543 263.853 26.5978 262.132 26.7067C260.357 26.6301 258.608 27.1569 257.171 28.2013C255.734 29.2456 254.693 30.7459 254.218 32.4577C253.362 34.9873 252.969 37.6503 253.057 40.3191C252.991 42.5565 253.386 44.7835 254.218 46.8614C254.794 48.475 255.875 49.8597 257.301 50.8101C258.727 51.7606 260.421 52.226 262.132 52.1375C263.403 52.0851 264.645 51.7326 265.754 51.1091C266.864 50.4856 267.81 49.6088 268.516 48.5498H268.674Z" fill="white"/>
<path d="M303.706 23.3287C305.731 24.3008 307.461 25.7939 308.719 27.655C309.851 29.4106 310.589 31.3906 310.882 33.4587C311.316 35.8779 311.493 38.3362 311.409 40.7926H287.298C287.248 43.6624 288.077 46.4789 289.672 48.865C290.469 49.9068 291.514 50.7326 292.712 51.2671C293.91 51.8016 295.223 52.0278 296.531 51.925C297.825 51.9793 299.116 51.7475 300.311 51.2459C301.505 50.7443 302.575 49.9854 303.443 49.0233C304.406 47.9159 305.093 46.5959 305.447 45.1717H310.724C310.495 46.5999 310.012 47.9757 309.299 49.2342C308.565 50.5737 307.641 51.7999 306.555 52.8747C304.845 54.5719 302.685 55.7438 300.33 56.2515C298.858 56.5825 297.353 56.7418 295.845 56.7263C293.868 56.7773 291.902 56.4033 290.082 55.6296C288.262 54.856 286.628 53.7006 285.293 52.2416C282.274 48.7589 280.74 44.2322 281.019 39.6318C280.799 34.9182 282.341 30.2913 285.346 26.6525C286.73 25.0398 288.458 23.7575 290.403 22.8993C292.347 22.0411 294.459 21.6289 296.584 21.693C299.053 21.6751 301.492 22.2354 303.706 23.3287ZM305.658 36.3607C305.545 34.3427 305.025 32.3685 304.128 30.557C303.363 29.2454 302.246 28.1746 300.903 27.4658C299.56 26.7571 298.045 26.4388 296.531 26.5471C295.329 26.5318 294.138 26.7734 293.037 27.2557C291.936 27.7379 290.95 28.4497 290.147 29.3434C288.419 31.273 287.461 33.7707 287.456 36.3607H305.658Z" fill="white"/>
<defs>
<linearGradient id="paint0_linear_28_2208" x1="12.1241" y1="37.7016" x2="173.98" y2="-2.93572" gradientUnits="userSpaceOnUse">
<stop stop-color="white"/>
<stop offset="1" stop-color="#0E4C99"/>
<stop offset="1" stop-color="white"/>
</linearGradient>
<linearGradient id="paint1_linear_28_2208" x1="-34.3292" y1="43.2599" x2="-34.1808" y2="43.2599" gradientUnits="userSpaceOnUse">
<stop stop-color="#3B5CAA"/>
<stop offset="1" stop-color="#0E4C99"/>
</linearGradient>
<linearGradient id="paint2_linear_28_2208" x1="0.799897" y1="33.1133" x2="66.0071" y2="33.1133" gradientUnits="userSpaceOnUse">
<stop stop-color="#3B5CAA"/>
<stop offset="1" stop-color="#0E4C99"/>
</linearGradient>
<linearGradient id="paint3_linear_28_2208" x1="17.66" y1="7.02259" x2="3.60678" y2="43.3269" gradientUnits="userSpaceOnUse">
<stop stop-color="#1E4E97"/>
<stop offset="1" stop-color="#1C2652"/>
</linearGradient>
<linearGradient id="paint4_linear_28_2208" x1="79.4498" y1="34.4618" x2="36.1149" y2="65.7006" gradientUnits="userSpaceOnUse">
<stop stop-color="#0AF0CF"/>
<stop offset="1" stop-color="#3ABCED"/>
</linearGradient>
</defs>
</svg>
