<svg width="240" height="60" viewBox="0 0 240 60" fill="none" xmlns="http://www.w3.org/2000/svg">
<!-- CalliopeAI circular logo symbol only - 4:1 ratio optimized -->
<g transform="translate(90, 5) scale(0.72)">
<path d="M36.8462 24.5462L33.4031 18.9873L29.9601 24.5462L12.1241 53.3319L17.1013 56.4158L33.4031 30.105L49.7049 56.4158L54.6821 53.3319L36.8462 24.5462Z" fill="url(#paint0_linear_28_2208)"/>
<path d="M33.4037 30.1045L48.7491 43.7557L54.6827 53.3314L49.7055 56.4153L33.4037 30.1045Z" fill="url(#paint1_linear_28_2208)"/>
<path d="M33.4035 62.7891C49.793 62.7891 63.0793 49.5028 63.0793 33.1133C63.0793 16.7238 49.793 3.4375 33.4035 3.4375C17.014 3.4375 3.72766 16.7238 3.72766 33.1133C3.72766 49.5028 17.014 62.7891 33.4035 62.7891Z" stroke="url(#paint2_linear_28_2208)" stroke-width="5.85553" stroke-miterlimit="10"/>
<path d="M2.33808 37.569C4.28993 41.863 6.88977 44.6346 8.86113 46.727C10.3558 48.3132 11.9745 49.7778 13.7017 51.107C10.1657 47.2663 7.83444 42.4724 6.99689 37.3194C6.15935 32.1665 6.85234 26.881 8.98996 22.1182C11.8748 14.6426 17.418 10.1026 19.85 8.11175C27.5754 1.79168 30.5305 1.03437 31.604 0.624479C31.7562 0.56202 30.9326 0.515178 29.4609 0.675229C29.1564 0.714266 28.8519 0.745491 28.5552 0.792335L28.3054 0.831362C27.8643 0.897725 27.4271 0.979716 26.9938 1.0656L26.7049 1.12414C26.3145 1.20612 25.9241 1.2959 25.5338 1.38959L25.0302 1.51841C24.6867 1.6082 24.351 1.70579 24.0113 1.80728L23.4375 1.98686C23.0471 2.10788 22.6568 2.2367 22.2859 2.37723L22.0517 2.4631C15.8175 4.78175 10.44 8.94892 6.63864 14.4071C2.83732 19.8653 0.793476 26.3541 0.780518 33.0056C0.842977 33.3374 0.913242 33.6614 0.999123 33.9776C1.36922 35.2018 1.81643 36.4013 2.33808 37.569Z" fill="url(#paint3_linear_28_2208)"/>
<path d="M58.5925 51.8839C60.271 47.465 60.3725 43.6667 60.4584 40.7936C60.5212 38.6152 60.4102 36.4352 60.1266 34.2744C59.9085 39.489 58.1648 44.525 55.1115 48.7579C52.0583 52.9909 47.8298 56.2346 42.9504 58.0869C35.6193 61.3348 28.5068 60.6243 25.3838 60.312C15.4528 59.3205 12.8295 57.7668 11.7794 57.2983C11.6272 57.232 12.1698 57.8488 13.3409 58.7779C13.5829 58.9652 13.8211 59.1682 14.067 59.3361L14.27 59.4844C14.6291 59.746 14.9922 59.9997 15.363 60.2456L15.609 60.4096C15.9369 60.6243 16.2726 60.8312 16.6083 61.0342L17.0572 61.2996C17.3617 61.4792 17.6701 61.6471 17.9824 61.8149L18.5133 62.096C18.8724 62.2795 19.2355 62.4629 19.6024 62.6347L19.8288 62.7362C25.8775 65.5054 32.6275 66.3616 39.1759 65.1903C45.7244 64.019 51.759 60.8761 56.4727 56.1819C56.6601 55.9047 56.8397 55.6237 56.9998 55.3387C57.6035 54.2221 58.1355 53.0682 58.5925 51.8839Z" fill="url(#paint4_linear_28_2208)"/>
</g>

<defs>
<linearGradient id="paint0_linear_28_2208" x1="12.1241" y1="37.7016" x2="173.98" y2="-2.93572" gradientUnits="userSpaceOnUse">
<stop stop-color="white"/>
<stop offset="1" stop-color="#0E4C99"/>
<stop offset="1" stop-color="white"/>
</linearGradient>
<linearGradient id="paint1_linear_28_2208" x1="-34.3292" y1="43.2599" x2="-34.1808" y2="43.2599" gradientUnits="userSpaceOnUse">
<stop stop-color="#3B5CAA"/>
<stop offset="1" stop-color="#0E4C99"/>
</linearGradient>
<linearGradient id="paint2_linear_28_2208" x1="0.799897" y1="33.1133" x2="66.0071" y2="33.1133" gradientUnits="userSpaceOnUse">
<stop stop-color="#3B5CAA"/>
<stop offset="1" stop-color="#0E4C99"/>
</linearGradient>
<linearGradient id="paint3_linear_28_2208" x1="17.66" y1="7.02259" x2="3.60678" y2="43.3269" gradientUnits="userSpaceOnUse">
<stop stop-color="#1E4E97"/>
<stop offset="1" stop-color="#1C2652"/>
</linearGradient>
<linearGradient id="paint4_linear_28_2208" x1="79.4498" y1="34.4618" x2="36.1149" y2="65.7006" gradientUnits="userSpaceOnUse">
<stop stop-color="#0AF0CF"/>
<stop offset="1" stop-color="#3ABCED"/>
</linearGradient>
</defs>
</svg> 