<svg width="120" height="120" viewBox="0 0 120 120" fill="none" xmlns="http://www.w3.org/2000/svg">
<defs>
  <linearGradient id="bg_gradient" x1="0" y1="0" x2="120" y2="120" gradientUnits="userSpaceOnUse">
    <stop offset="0" stop-color="#0B1120"/>
    <stop offset="1" stop-color="#1F335D"/>
  </linearGradient>
</defs>
<!-- Dark blue gradient background, full bleed -->
<rect width="120" height="120" fill="url(#bg_gradient)"/>
<!-- White Calliope circle-A logo, scaled from 16x16 to fit centered -->
<g>
  <g transform="translate(15, 15) scale(5.625)">
    <path d="M14.1812 12.6018C14.593 11.5179 14.6179 10.5861 14.639 9.88137C14.6544 9.34701 14.6271 8.81227 14.5576 8.28223C14.5041 9.56137 14.0763 10.7967 13.3274 11.835C12.5784 12.8734 11.5412 13.669 10.3443 14.1234C8.54594 14.9201 6.80125 14.7458 6.03519 14.6692C3.59913 14.426 2.95564 14.0449 2.69805 13.93C2.66071 13.9137 2.79381 14.065 3.08108 14.2929C3.14045 14.3389 3.19887 14.3887 3.25919 14.4298L3.30898 14.4662C3.39708 14.5304 3.48613 14.5926 3.5771 14.6529L3.63743 14.6932C3.71787 14.7458 3.80022 14.7966 3.88257 14.8464L3.99269 14.9115C4.06738 14.9555 4.14303 14.9967 4.21963 15.0379L4.34986 15.1068C4.43796 15.1518 4.52702 15.1968 4.61703 15.239L4.67256 15.2639C6.15629 15.9432 7.81205 16.1532 9.41838 15.8659C11.0247 15.5786 12.505 14.8076 13.6613 13.6561C13.7072 13.5881 13.7513 13.5192 13.7906 13.4493C13.9387 13.1754 14.0692 12.8923 14.1812 12.6018Z" fill="white"/>
    <path d="M8.0022 7.25879L11.7664 10.6074L13.2219 12.9563L12.001 13.7128L8.0022 7.25879Z" fill="white" fill-opacity="0.2"/>
    <path fill-rule="evenodd" clip-rule="evenodd" d="M8.0022 4.53223L8.84677 5.89581L11.7665 10.608L8.00229 7.2594L12.0011 13.7134L12.001 13.7134L8.0022 7.25939L4.00338 13.7134L2.78247 12.9569L7.15762 5.89581L8.0022 4.53223Z" fill="white"/>
    <path fill-rule="evenodd" clip-rule="evenodd" d="M8.00227 1.43636C4.37858 1.43636 1.44099 4.37394 1.44099 7.99763C1.44099 11.6213 4.37858 14.5589 8.00227 14.5589C11.626 14.5589 14.5635 11.6213 14.5635 7.99763C14.5635 4.37394 11.626 1.43636 8.00227 1.43636ZM0.00463867 7.99763C0.00463867 3.58066 3.5853 0 8.00227 0C12.4192 0 15.9999 3.58066 15.9999 7.99763C15.9999 12.4146 12.4192 15.9953 8.00227 15.9953C3.5853 15.9953 0.00463867 12.4146 0.00463867 7.99763Z" fill="white"/>
    <path d="M0.38207 9.09036C0.860855 10.1437 1.49859 10.8236 1.98217 11.3368C2.34882 11.7259 2.74587 12.0852 3.16956 12.4112C2.30218 11.4691 1.73032 10.2932 1.52487 9.02915C1.31942 7.76514 1.48941 6.46863 2.01377 5.3003C2.72141 3.46655 4.08116 2.3529 4.67773 1.86454C6.57276 0.31423 7.29764 0.128462 7.56098 0.0279171C7.59832 0.012596 7.39627 0.00110557 7.03527 0.040366C6.96058 0.0499417 6.88589 0.0576011 6.81311 0.0690919L6.75183 0.0786653C6.64362 0.094944 6.53637 0.115057 6.43008 0.136123L6.35922 0.150483C6.26347 0.170592 6.16771 0.192616 6.07195 0.215597L5.94843 0.247199C5.86416 0.269223 5.78181 0.293161 5.6985 0.318058L5.55774 0.362108C5.46198 0.391793 5.36622 0.423393 5.27525 0.457865L5.2178 0.478929C3.68855 1.04769 2.36945 2.06989 1.43699 3.40878C0.504532 4.74766 0.00317879 6.33938 0 7.97097C0.0153211 8.05236 0.0325572 8.13184 0.0536237 8.2094C0.144407 8.5097 0.254108 8.80393 0.38207 9.09036Z" fill="white"/>
  </g>
</g>
</svg>

